<svg width="381" height="135" viewBox="0 0 381 135" fill="none" xmlns="http://www.w3.org/2000/svg">
<g clip-path="url(#clip0)">
<line x1="3" y1="129.5" x2="381.005" y2="129.5" stroke="black"/>
<path d="M174.368 79.88V100.232C174.368 103.464 173.968 106.072 173.168 108.056C172.4 110.008 171.136 111.432 169.376 112.328C167.616 113.192 165.264 113.624 162.32 113.624C159.248 113.624 156.784 113.192 154.928 112.328C153.104 111.432 151.792 110.008 150.992 108.056C150.192 106.072 149.792 103.464 149.792 100.232V79.88H154.592V100.232C154.592 102.536 154.816 104.36 155.264 105.704C155.744 107.048 156.528 108.008 157.616 108.584C158.736 109.16 160.224 109.448 162.08 109.448C163.904 109.448 165.36 109.16 166.448 108.584C167.568 108.008 168.368 107.048 168.848 105.704C169.328 104.36 169.568 102.536 169.568 100.232V79.88H174.368Z" fill="black"/>
<path d="M188.62 79.832C190.956 79.832 193.324 79.848 195.724 79.88C198.156 79.912 200.444 80.008 202.588 80.168L202.348 83.816H190.012C187.932 83.816 186.892 84.824 186.892 86.84V94.184H200.524V97.928H186.892V113H182.092V85.928C182.092 84.008 182.684 82.52 183.868 81.464C185.052 80.376 186.636 79.832 188.62 79.832Z" fill="#791D1F"/>
<path d="M232.972 79.88L223.084 111.656C222.956 112.04 222.732 112.36 222.412 112.616C222.092 112.872 221.724 113 221.308 113H216.556C216.108 113 215.724 112.872 215.404 112.616C215.084 112.36 214.86 112.04 214.732 111.656L204.892 79.88H209.884L217.372 105.704C217.532 106.312 217.692 106.92 217.852 107.528C218.012 108.104 218.156 108.696 218.284 109.304H219.58C219.708 108.696 219.852 108.088 220.012 107.48C220.172 106.872 220.348 106.264 220.54 105.656L227.98 79.88H232.972Z" fill="#C3A63B"/>
<path d="M88.3438 63.3438V58.4688C91.125 59.75 93.1562 60.5234 94.4375 60.7891C95.7188 61.0547 96.9062 61.1875 98 61.1875C99.9844 61.1875 101.547 60.6484 102.688 59.5703C103.844 58.4766 104.422 57.1719 104.422 55.6562C104.422 54.5156 104.125 53.4609 103.531 52.4922C102.922 51.5391 101.406 50.375 98.9844 49L96.5938 47.6172C93.4062 45.8047 91.2656 44.1484 90.1719 42.6484C89.0781 41.1484 88.5312 39.4844 88.5312 37.6562C88.5312 36.0156 88.9609 34.4766 89.8203 33.0391C90.6953 31.6016 91.8594 30.4766 93.3125 29.6641C94.7812 28.8516 96.625 28.4453 98.8438 28.4453C101.516 28.4453 104.336 28.8906 107.305 29.7812V34.2812C104.727 33.2656 102.953 32.6562 101.984 32.4531C101.031 32.2344 100.078 32.125 99.125 32.125C97.125 32.125 95.6406 32.6484 94.6719 33.6953C93.7188 34.7422 93.2422 35.8125 93.2422 36.9062C93.2422 37.6562 93.4688 38.4219 93.9219 39.2031C94.375 39.9688 94.9844 40.6328 95.75 41.1953C96.5156 41.7422 97.5703 42.3984 98.9141 43.1641L101.398 44.5703C104.617 46.3984 106.766 48.0703 107.844 49.5859C108.922 51.1172 109.461 52.875 109.461 54.8594C109.461 57.5625 108.43 59.9062 106.367 61.8906C104.32 63.875 101.297 64.8672 97.2969 64.8672C96.0625 64.8672 94.8672 64.7812 93.7109 64.6094C92.5547 64.4531 90.7656 64.0312 88.3438 63.3438ZM142.414 62.2188C140.992 62.9531 139.719 63.5 138.594 63.8594C137.484 64.2031 136.328 64.4531 135.125 64.6094C133.922 64.7812 132.617 64.8672 131.211 64.8672C125.367 64.8672 121.086 63.1406 118.367 59.6875C115.664 56.2344 114.312 51.8984 114.312 46.6797C114.312 41.3516 115.719 36.9844 118.531 33.5781C121.344 30.1562 125.656 28.4453 131.469 28.4453C134.562 28.4453 138.195 28.9531 142.367 29.9688V34.5859C138.867 33.3828 136.453 32.6719 135.125 32.4531C133.812 32.2344 132.562 32.125 131.375 32.125C127.219 32.125 124.203 33.5391 122.328 36.3672C120.469 39.1797 119.539 42.6328 119.539 46.7266C119.539 50.9922 120.609 54.4453 122.75 57.0859C124.906 59.7109 127.953 61.0234 131.891 61.0234C132.984 61.0234 134.07 60.9297 135.148 60.7422C136.242 60.5391 137.328 60.25 138.406 59.875C139.484 59.4844 140.82 58.8594 142.414 58V62.2188ZM145.508 64L159.266 29.3125H164.141L177.688 64H172.367L168.594 54.3906H153.898L150.078 64H145.508ZM155.328 50.7344H167.164L161.258 35.7812L155.328 50.7344ZM182.727 64V29.3125H194.258C198.711 29.3125 202.086 29.9609 204.383 31.2578C206.68 32.5391 208.477 34.4219 209.773 36.9062C211.086 39.375 211.742 42.3516 211.742 45.8359C211.742 49.1328 211.141 52.1562 209.938 54.9062C208.75 57.6562 206.938 59.8594 204.5 61.5156C202.062 63.1719 198.672 64 194.328 64H182.727ZM187.648 60.3203H193.953C197.234 60.3203 199.688 59.8047 201.312 58.7734C202.953 57.7266 204.234 56.0781 205.156 53.8281C206.078 51.5781 206.539 49.0703 206.539 46.3047C206.539 43.8672 206.141 41.6484 205.344 39.6484C204.547 37.6328 203.258 36.0234 201.477 34.8203C199.695 33.6016 196.438 32.9922 191.703 32.9922H187.648V60.3203ZM214.602 64L228.359 29.3125H233.234L246.781 64H241.461L237.688 54.3906H222.992L219.172 64H214.602ZM224.422 50.7344H236.258L230.352 35.7812L224.422 50.7344ZM249.945 51.2734V47.8047H260.352V51.2734H249.945ZM267.43 64V29.3125H286.812V32.9922H272.352V44.125H284.469V47.7578H272.352V60.3203H287.82V64H267.43Z" fill="black"/>
<line x1="3" y1="4.5" x2="381.005" y2="4.5" stroke="black"/>
</g>
<defs>
<clipPath id="clip0">
<rect width="381" height="135" fill="white"/>
</clipPath>
</defs>
</svg>
